# xmcd CD database file
#
# Track frame offsets:
#	150
#	14205
#	26286
#	41656
#	57664
#	86448
#	99573
#	114508
#	130187
#	144943
#
# Disc length: 2322 seconds
#
# Revision: 4
# Processed by: cddbd v1.5.2PL0 Copyright (c) Steve Scherf et al.
# Submitted via: CDex 1.51
#
DISCID=8309100a
DTITLE=Bert Kaempfert and His Orchestra - Smile
DYEAR=1979
DGENRE=Easy Listening
TTITLE0=Raining In My Heart
TTITLE1=Chanson D'Amour
TTITLE2=Just You, Just Me
TTITLE3=What Kind of Fool Am I?
TTITLE4=Frisco Disco
TTITLE5=Rosalie
TTITLE6=I Cried for You
TTITLE7=I'll Be Seeing You
TTITLE8=Smile
TTITLE9=Keep On Dancing
EXTD=YEAR: 1979
EXTT0=
EXTT1=
EXTT2=
EXTT3=
EXTT4=
EXTT5=
EXTT6=
EXTT7=
EXTT8=
EXTT9=
PLAYORDER=
